<svg width="100" height="100" xmlns="http://www.w3.org/2000/svg">
 <g id="music1">
  <title>Layer 1</title>
  <path id="svg_1" d="m30.96449,98.28609c-4.17915,-0.70542 -8.06091,-4.54229 -7.27252,-9.02122c0.39902,-4.91695 4.30736,-8.87427 8.23975,-11.48159c5.23349,-3.56288 12.38914,-4.88642 18.15655,-1.8135c0.33794,-24.78447 0.14534,-49.57515 0.19653,-74.36242c3.63696,-0.88063 2.46102,3.8811 3.28703,6.08319c0.78819,6.47533 5.13133,11.55629 9.45443,16.09334c5.36351,5.70287 11.05879,11.74962 12.80212,19.65057c1.90367,9.16682 -1.13966,18.54457 -5.0891,26.75979c-0.28599,2.6329 -5.1155,6.4421 -2.81455,1.68431c3.8744,-8.13902 7.07515,-17.51245 4.43062,-26.52514c-2.51835,-8.99297 -10.36787,-16.50344 -19.71218,-17.85013c-0.06039,18.98932 0.14706,37.98223 -0.22146,56.96851c-0.91865,5.59269 -5.77627,9.74242 -10.64761,12.11195c-3.35902,1.4625 -7.15013,2.34738 -10.80962,1.70234l0,-0.00001z" stroke-width="0" stroke="#000000" fill="#000000"/>
 </g>

</svg>