<svg width="100" height="100" xmlns="http://www.w3.org/2000/svg">
 <g id="taiji">
  <title>Layer 1</title>
  <path id="svg_1" d="m50.48657,0.98656c13.52731,0 24.50144,10.98469 24.50144,24.512c0,13.52732 -10.97413,24.50144 -24.50144,24.50144c-13.52732,0 -24.50144,10.9847 -24.50144,24.51201c0,13.52731 10.97413,24.50144 24.50144,24.50144c27.05462,0 49.01343,-21.95883 49.01343,-49.01345c0,-27.05462 -21.95882,-49.01344 -49.01343,-49.01344l0,0zm0,16.852c-4.22946,0 -7.66001,3.43053 -7.66001,7.66c0,4.22947 3.43054,7.66 7.66001,7.66c4.22947,0 7.66,-3.43053 7.66,-7.66c0,-4.22947 -3.43053,-7.66 -7.66,-7.66zm0,49.01345c4.22728,0 7.66,3.43271 7.66,7.66c0,4.22728 -3.43272,7.66001 -7.66,7.66001c-4.22728,0 -7.66001,-3.43273 -7.66001,-7.66001c0,-4.22728 3.43272,-7.66 7.66001,-7.66zm47.9141,-16.82078c0,27.03452 -21.9158,48.95033 -48.95033,48.95033c-27.03452,0 -48.95033,-21.91581 -48.95033,-48.95033c0,-27.03453 21.91581,-48.95034 48.95033,-48.95034c27.03453,0 48.95033,21.91582 48.95033,48.95034z" opacity="undefined" stroke="#000" fill="#000000"/>
 </g>
</svg>