<svg width="800" height="600" xmlns="http://www.w3.org/2000/svg">

 <g>
  <title>taiji</title>
  <path id="svg_4" d="m49.83861,0.29c13.16794,0 23.85052,10.69287 23.85052,23.86081c0,13.16794 -10.68258,23.85052 -23.85052,23.85052c-13.16794,0 -23.85053,10.69288 -23.85053,23.86081c0,13.16794 10.68258,23.85052 23.85053,23.85052c26.33587,0 47.71133,-21.37547 47.71133,-47.71134c0,-26.33588 -21.37545,-47.71133 -47.71133,-47.71133l0,0zm0,16.40431c-4.1171,0 -7.45651,3.3394 -7.45651,7.4565c0,4.11711 3.3394,7.4565 7.45651,7.4565c4.1171,0 7.4565,-3.3394 7.4565,-7.4565c0,-4.1171 -3.33939,-7.4565 -7.4565,-7.4565zm0,47.71134c4.11497,0 7.4565,3.34152 7.4565,7.4565c0,4.11497 -3.34152,7.45651 -7.4565,7.45651c-4.11498,0 -7.45651,-3.34153 -7.45651,-7.45651c0,-4.11497 3.34153,-7.4565 7.45651,-7.4565zm46.64119,-16.37391c0,26.31631 -21.33358,47.64989 -47.6499,47.64989c-26.31631,0 -47.6499,-21.33358 -47.6499,-47.64989c0,-26.31632 21.33359,-47.64991 47.6499,-47.64991c26.31632,0 47.6499,21.33359 47.6499,47.64991z" opacity="undefined" stroke="#000" fill="#000000"/>
 </g>
</svg>